<svg width="1256" height="1271" viewBox="0 0 1256 1271" fill="none" xmlns="http://www.w3.org/2000/svg">
<g opacity="0.3" filter="url(#filter0_f_579_942)">
<path opacity="0.5" d="M554.904 733.397C567.684 752.489 559.826 778.358 575.505 796.56C580.038 801.082 584.735 814.134 567.261 830.16C562.772 855.982 498.053 893.234 503.891 920.511C508.188 940.591 514.736 964.221 540.199 979.214C559.833 990.772 584.879 995.39 607.716 997.934C640.801 1001.61 674.104 1001.13 704.515 995.938C803.638 979.025 873.089 922.663 922.154 864.617C981.939 793.894 1006.16 709.462 1005.8 620.965C1005.66 584.467 1000.8 547.805 986.52 510.766C973.371 476.67 955.215 442.661 933.343 409.812C905.507 367.986 869.231 327.124 820.641 294.033C783.69 268.858 738.933 256.184 692.282 251.51C628.515 245.106 574.27 262.943 541.437 296.76C521.183 317.622 510.094 350.355 539.256 376.606C561.507 396.628 596.136 407.676 625.419 420.568C644.982 429.19 672.487 441.641 671.887 458.999C670.875 488.358 654.136 516.37 638.183 541.062C617.804 572.606 584.425 596.665 557.593 624.772C542.14 640.959 538.889 661.858 538.925 682.641C538.96 699.347 543.952 717.025 554.904 733.397Z" fill="#00F0FF" fill-opacity="0.6"/>
</g>
<g opacity="0.4" filter="url(#filter1_f_579_942)">
<path opacity="0.5" d="M701.535 753.397C688.756 772.489 696.614 798.358 680.935 816.56C676.401 821.082 671.704 834.134 689.178 850.16C693.667 875.982 758.386 913.234 752.549 940.511C748.252 960.591 741.703 984.221 716.24 999.214C696.607 1010.77 671.561 1015.39 648.723 1017.93C615.639 1021.61 582.336 1021.13 551.925 1015.94C452.802 999.025 383.35 942.663 334.286 884.617C274.5 813.894 250.281 729.462 250.638 640.965C250.783 604.467 255.643 567.805 269.92 530.766C283.069 496.67 301.225 462.661 323.096 429.812C350.932 387.986 387.209 347.124 435.799 314.033C472.749 288.858 517.506 276.184 564.157 271.51C627.924 265.106 682.169 282.943 715.002 316.76C735.256 337.622 746.346 370.355 717.183 396.606C694.933 416.628 660.303 427.676 631.021 440.568C611.457 449.19 583.953 461.641 584.553 478.999C585.565 508.358 602.303 536.37 618.256 561.062C638.636 592.606 672.014 616.665 698.846 644.772C714.3 660.959 717.551 681.858 717.514 702.641C717.48 719.347 712.487 737.025 701.535 753.397Z" fill="#FF1CF7" fill-opacity="0.8"/>
</g>
<defs>
<filter id="filter0_f_579_942" x="253.519" y="0.221191" width="1002.29" height="1250.11" filterUnits="userSpaceOnUse" color-interpolation-filters="sRGB">
<feFlood flood-opacity="0" result="BackgroundImageFix"/>
<feBlend mode="normal" in="SourceGraphic" in2="BackgroundImageFix" result="shape"/>
<feGaussianBlur stdDeviation="125" result="effect1_foregroundBlur_579_942"/>
</filter>
<filter id="filter1_f_579_942" x="0.633789" y="20.2212" width="1002.29" height="1250.11" filterUnits="userSpaceOnUse" color-interpolation-filters="sRGB">
<feFlood flood-opacity="0" result="BackgroundImageFix"/>
<feBlend mode="normal" in="SourceGraphic" in2="BackgroundImageFix" result="shape"/>
<feGaussianBlur stdDeviation="125" result="effect1_foregroundBlur_579_942"/>
</filter>
</defs>
</svg>
