<svg width="168" height="34" viewBox="0 0 168 34" fill="none" xmlns="http://www.w3.org/2000/svg">
<rect width="167.682" height="34" rx="8" fill="black"/>
<path d="M21.7841 21H18.9588V12.2727H21.8736C22.7287 12.2727 23.4631 12.4474 24.0767 12.7969C24.6903 13.1435 25.1605 13.642 25.4872 14.2926C25.8168 14.9403 25.9815 15.7173 25.9815 16.6236C25.9815 17.5327 25.8153 18.3139 25.483 18.9673C25.1534 19.6207 24.6761 20.1236 24.0511 20.4759C23.4261 20.8253 22.6705 21 21.7841 21ZM20.2756 19.8494H21.7116C22.3764 19.8494 22.929 19.7244 23.3693 19.4744C23.8097 19.2216 24.1392 18.8565 24.358 18.3793C24.5767 17.8991 24.6861 17.3139 24.6861 16.6236C24.6861 15.9389 24.5767 15.358 24.358 14.8807C24.142 14.4034 23.8196 14.0412 23.3906 13.794C22.9616 13.5469 22.429 13.4233 21.7926 13.4233H20.2756V19.8494ZM30.3377 21.1321C29.6928 21.1321 29.1374 20.9943 28.6715 20.7188C28.2085 20.4403 27.8505 20.0497 27.5977 19.5469C27.3477 19.0412 27.2227 18.4489 27.2227 17.7699C27.2227 17.0994 27.3477 16.5085 27.5977 15.9972C27.8505 15.4858 28.2028 15.0866 28.6545 14.7997C29.109 14.5128 29.6403 14.3693 30.2482 14.3693C30.6175 14.3693 30.9755 14.4304 31.3221 14.5526C31.6687 14.6747 31.9798 14.8665 32.2553 15.1278C32.5309 15.3892 32.7482 15.7287 32.9073 16.1463C33.0664 16.5611 33.146 17.0653 33.146 17.6591V18.1108H27.9428V17.1562H31.8974C31.8974 16.821 31.8292 16.5241 31.6928 16.2656C31.5565 16.0043 31.3647 15.7983 31.1175 15.6477C30.8732 15.4972 30.5863 15.4219 30.2567 15.4219C29.8988 15.4219 29.5863 15.5099 29.3192 15.6861C29.055 15.8594 28.8505 16.0866 28.7056 16.3679C28.5636 16.6463 28.4925 16.9489 28.4925 17.2756V18.0213C28.4925 18.4588 28.5692 18.831 28.7227 19.1378C28.8789 19.4446 29.0962 19.679 29.3746 19.8409C29.6531 20 29.9783 20.0795 30.3505 20.0795C30.592 20.0795 30.8121 20.0455 31.011 19.9773C31.2099 19.9062 31.3817 19.8011 31.5266 19.6619C31.6715 19.5227 31.7823 19.3509 31.859 19.1463L33.065 19.3636C32.9684 19.7187 32.7951 20.0298 32.5451 20.2969C32.2979 20.5611 31.9869 20.767 31.6119 20.9148C31.2397 21.0597 30.815 21.1321 30.3377 21.1321ZM34.5597 23.4545V14.4545H35.804V15.5156H35.9105C35.9844 15.3793 36.0909 15.2216 36.2301 15.0426C36.3693 14.8636 36.5625 14.7074 36.8097 14.5739C37.0568 14.4375 37.3835 14.3693 37.7898 14.3693C38.3182 14.3693 38.7898 14.5028 39.2045 14.7699C39.6193 15.0369 39.9446 15.4219 40.1804 15.9247C40.419 16.4276 40.5384 17.0327 40.5384 17.7401C40.5384 18.4474 40.4205 19.054 40.1847 19.5597C39.9489 20.0625 39.625 20.4503 39.2131 20.723C38.8011 20.9929 38.331 21.1278 37.8026 21.1278C37.4048 21.1278 37.0795 21.0611 36.8267 20.9276C36.5767 20.794 36.3807 20.6378 36.2386 20.4588C36.0966 20.2798 35.9872 20.1207 35.9105 19.9815H35.8338V23.4545H34.5597ZM35.8082 17.7273C35.8082 18.1875 35.875 18.5909 36.0085 18.9375C36.142 19.2841 36.3352 19.5554 36.5881 19.7514C36.8409 19.9446 37.1506 20.0412 37.517 20.0412C37.8977 20.0412 38.2159 19.9403 38.4716 19.7386C38.7273 19.5341 38.9205 19.2571 39.0511 18.9077C39.1847 18.5582 39.2514 18.1648 39.2514 17.7273C39.2514 17.2955 39.1861 16.9077 39.0554 16.5639C38.9276 16.2202 38.7344 15.9489 38.4759 15.75C38.2202 15.5511 37.9006 15.4517 37.517 15.4517C37.1477 15.4517 36.8352 15.5469 36.5795 15.7372C36.3267 15.9276 36.1349 16.1932 36.0043 16.5341C35.8736 16.875 35.8082 17.2727 35.8082 17.7273ZM43.2401 12.2727V21H41.9659V12.2727H43.2401ZM47.7113 21.1321C47.0977 21.1321 46.5621 20.9915 46.1048 20.7102C45.6474 20.429 45.2923 20.0355 45.0394 19.5298C44.7866 19.0241 44.6602 18.4332 44.6602 17.7571C44.6602 17.0781 44.7866 16.4844 45.0394 15.9759C45.2923 15.4673 45.6474 15.0724 46.1048 14.7912C46.5621 14.5099 47.0977 14.3693 47.7113 14.3693C48.3249 14.3693 48.8604 14.5099 49.3178 14.7912C49.7752 15.0724 50.1303 15.4673 50.3832 15.9759C50.636 16.4844 50.7624 17.0781 50.7624 17.7571C50.7624 18.4332 50.636 19.0241 50.3832 19.5298C50.1303 20.0355 49.7752 20.429 49.3178 20.7102C48.8604 20.9915 48.3249 21.1321 47.7113 21.1321ZM47.7156 20.0625C48.1133 20.0625 48.4428 19.9574 48.7042 19.7472C48.9656 19.5369 49.1587 19.2571 49.2837 18.9077C49.4116 18.5582 49.4755 18.1733 49.4755 17.7528C49.4755 17.3352 49.4116 16.9517 49.2837 16.6023C49.1587 16.25 48.9656 15.9673 48.7042 15.7543C48.4428 15.5412 48.1133 15.4347 47.7156 15.4347C47.315 15.4347 46.9826 15.5412 46.7184 15.7543C46.457 15.9673 46.2624 16.25 46.1346 16.6023C46.0096 16.9517 45.9471 17.3352 45.9471 17.7528C45.9471 18.1733 46.0096 18.5582 46.1346 18.9077C46.2624 19.2571 46.457 19.5369 46.7184 19.7472C46.9826 19.9574 47.315 20.0625 47.7156 20.0625ZM52.7674 23.4545C52.5771 23.4545 52.4038 23.4389 52.2475 23.4077C52.0913 23.3793 51.9748 23.348 51.8981 23.3139L52.2049 22.2699C52.4379 22.3324 52.6452 22.3594 52.8271 22.3509C53.0089 22.3423 53.1694 22.2741 53.3086 22.1463C53.4506 22.0185 53.5756 21.8097 53.6836 21.5199L53.8413 21.0852L51.4464 14.4545H52.81L54.4677 19.5341H54.5359L56.1935 14.4545H57.5614L54.864 21.8736C54.739 22.2145 54.5799 22.5028 54.3867 22.7386C54.1935 22.9773 53.9634 23.1563 53.6964 23.2756C53.4293 23.3949 53.1197 23.4545 52.7674 23.4545ZM61.3572 21.1321C60.7124 21.1321 60.157 20.9943 59.6911 20.7188C59.228 20.4403 58.87 20.0497 58.6172 19.5469C58.3672 19.0412 58.2422 18.4489 58.2422 17.7699C58.2422 17.0994 58.3672 16.5085 58.6172 15.9972C58.87 15.4858 59.2223 15.0866 59.674 14.7997C60.1286 14.5128 60.6598 14.3693 61.2678 14.3693C61.6371 14.3693 61.995 14.4304 62.3416 14.5526C62.6882 14.6747 62.9993 14.8665 63.2749 15.1278C63.5504 15.3892 63.7678 15.7287 63.9268 16.1463C64.0859 16.5611 64.1655 17.0653 64.1655 17.6591V18.1108H58.9624V17.1562H62.9169C62.9169 16.821 62.8487 16.5241 62.7124 16.2656C62.576 16.0043 62.3842 15.7983 62.1371 15.6477C61.8928 15.4972 61.6058 15.4219 61.2763 15.4219C60.9183 15.4219 60.6058 15.5099 60.3388 15.6861C60.0746 15.8594 59.87 16.0866 59.7251 16.3679C59.5831 16.6463 59.5121 16.9489 59.5121 17.2756V18.0213C59.5121 18.4588 59.5888 18.831 59.7422 19.1378C59.8984 19.4446 60.1158 19.679 60.3942 19.8409C60.6726 20 60.9979 20.0795 61.37 20.0795C61.6115 20.0795 61.8317 20.0455 62.0305 19.9773C62.2294 19.9062 62.4013 19.8011 62.5462 19.6619C62.6911 19.5227 62.8018 19.3509 62.8786 19.1463L64.0845 19.3636C63.9879 19.7187 63.8146 20.0298 63.5646 20.2969C63.3175 20.5611 63.0064 20.767 62.6314 20.9148C62.2592 21.0597 61.8345 21.1321 61.3572 21.1321ZM68.0295 21.1278C67.5011 21.1278 67.0295 20.9929 66.6147 20.723C66.2028 20.4503 65.8789 20.0625 65.6431 19.5597C65.4102 19.054 65.2937 18.4474 65.2937 17.7401C65.2937 17.0327 65.4116 16.4276 65.6474 15.9247C65.886 15.4219 66.2127 15.0369 66.6275 14.7699C67.0423 14.5028 67.5124 14.3693 68.038 14.3693C68.4442 14.3693 68.771 14.4375 69.0181 14.5739C69.2681 14.7074 69.4613 14.8636 69.5977 15.0426C69.7369 15.2216 69.8448 15.3793 69.9215 15.5156H69.9982V12.2727H71.2724V21H70.0281V19.9815H69.9215C69.8448 20.1207 69.734 20.2798 69.5891 20.4588C69.4471 20.6378 69.2511 20.794 69.0011 20.9276C68.7511 21.0611 68.4272 21.1278 68.0295 21.1278ZM68.3107 20.0412C68.6772 20.0412 68.9869 19.9446 69.2397 19.7514C69.4954 19.5554 69.6886 19.2841 69.8192 18.9375C69.9528 18.5909 70.0195 18.1875 70.0195 17.7273C70.0195 17.2727 69.9542 16.875 69.8235 16.5341C69.6928 16.1932 69.5011 15.9276 69.2482 15.7372C68.9954 15.5469 68.6829 15.4517 68.3107 15.4517C67.9272 15.4517 67.6076 15.5511 67.3519 15.75C67.0962 15.9489 66.9031 16.2202 66.7724 16.5639C66.6445 16.9077 66.5806 17.2955 66.5806 17.7273C66.5806 18.1648 66.646 18.5582 66.7766 18.9077C66.9073 19.2571 67.1005 19.5341 67.3562 19.7386C67.6147 19.9403 67.9329 20.0412 68.3107 20.0412ZM79.0238 21.1321C78.4102 21.1321 77.8746 20.9915 77.4173 20.7102C76.9599 20.429 76.6048 20.0355 76.3519 19.5298C76.0991 19.0241 75.9727 18.4332 75.9727 17.7571C75.9727 17.0781 76.0991 16.4844 76.3519 15.9759C76.6048 15.4673 76.9599 15.0724 77.4173 14.7912C77.8746 14.5099 78.4102 14.3693 79.0238 14.3693C79.6374 14.3693 80.1729 14.5099 80.6303 14.7912C81.0877 15.0724 81.4428 15.4673 81.6957 15.9759C81.9485 16.4844 82.0749 17.0781 82.0749 17.7571C82.0749 18.4332 81.9485 19.0241 81.6957 19.5298C81.4428 20.0355 81.0877 20.429 80.6303 20.7102C80.1729 20.9915 79.6374 21.1321 79.0238 21.1321ZM79.0281 20.0625C79.4258 20.0625 79.7553 19.9574 80.0167 19.7472C80.2781 19.5369 80.4712 19.2571 80.5962 18.9077C80.7241 18.5582 80.788 18.1733 80.788 17.7528C80.788 17.3352 80.7241 16.9517 80.5962 16.6023C80.4712 16.25 80.2781 15.9673 80.0167 15.7543C79.7553 15.5412 79.4258 15.4347 79.0281 15.4347C78.6275 15.4347 78.2951 15.5412 78.0309 15.7543C77.7695 15.9673 77.5749 16.25 77.4471 16.6023C77.3221 16.9517 77.2596 17.3352 77.2596 17.7528C77.2596 18.1733 77.3221 18.5582 77.4471 18.9077C77.5749 19.2571 77.7695 19.5369 78.0309 19.7472C78.2951 19.9574 78.6275 20.0625 79.0281 20.0625ZM84.7713 17.1136V21H83.4972V14.4545H84.7202V15.5199H84.8011C84.9517 15.1733 85.1875 14.8949 85.5085 14.6847C85.8324 14.4744 86.2401 14.3693 86.7315 14.3693C87.1776 14.3693 87.5682 14.4631 87.9034 14.6506C88.2386 14.8352 88.4986 15.1108 88.6832 15.4773C88.8679 15.8437 88.9602 16.2969 88.9602 16.8366V21H87.6861V16.9901C87.6861 16.5156 87.5625 16.1449 87.3153 15.8778C87.0682 15.608 86.7287 15.473 86.2969 15.473C86.0014 15.473 85.7386 15.5369 85.5085 15.6648C85.2813 15.7926 85.1009 15.9801 84.9673 16.2273C84.8366 16.4716 84.7713 16.767 84.7713 17.1136Z" fill="white"/>
<path d="M122.103 13.4091C120.001 13.4091 118.485 14.8 118.485 16.8864C118.485 18.9727 120.189 20.3636 122.294 20.3636C123.564 20.3636 124.684 19.8536 125.377 18.994L123.92 18.1401C123.535 18.567 122.951 18.8162 122.294 18.8162C121.382 18.8162 120.607 18.3333 120.319 17.5606H125.655C125.697 17.3442 125.722 17.1201 125.722 16.8844C125.722 14.8 124.208 13.4091 122.103 13.4091ZM120.304 16.2102C120.542 15.4394 121.193 14.9545 122.103 14.9545C123.016 14.9545 123.667 15.4394 123.903 16.2102H120.304ZM119.873 11.2841L114.596 20.5568L109.317 11.2841H111.296L114.594 17.0795L117.893 11.2841H119.873ZM102.037 10.3182L109.074 22.6818H95L102.037 10.3182ZM133.377 16.8864C133.377 18.0454 134.124 18.8182 135.282 18.8182C136.066 18.8182 136.655 18.4569 136.958 17.8677L138.42 18.7235C137.815 19.7474 136.68 20.3636 135.282 20.3636C133.177 20.3636 131.663 18.9727 131.663 16.8864C131.663 14.8 133.179 13.4091 135.282 13.4091C136.68 13.4091 137.813 14.0253 138.42 15.0492L136.958 15.905C136.655 15.3158 136.066 14.9545 135.282 14.9545C134.126 14.9545 133.377 15.7273 133.377 16.8864ZM149.085 11.2841V20.1704H147.371V11.2841H149.085ZM142.61 13.4091C140.507 13.4091 138.992 14.8 138.992 16.8864C138.992 18.9727 140.698 20.3636 142.8 20.3636C144.07 20.3636 145.19 19.8536 145.883 18.994L144.427 18.1401C144.042 18.567 143.457 18.8162 142.8 18.8162C141.888 18.8162 141.113 18.3333 140.825 17.5606H146.162C146.203 17.3442 146.228 17.1201 146.228 16.8844C146.228 14.8 144.714 13.4091 142.61 13.4091ZM140.81 16.2102C141.048 15.4394 141.698 14.9545 142.61 14.9545C143.522 14.9545 144.173 15.4394 144.41 16.2102H140.81ZM131.092 13.6023V15.4742C130.902 15.4182 130.7 15.3795 130.483 15.3795C129.376 15.3795 128.578 16.1523 128.578 17.3114V20.1704H126.864V13.6023H128.578V15.3795C128.578 14.3982 129.704 13.6023 131.092 13.6023Z" fill="white"/>
</svg>
