<svg xmlns="http://www.w3.org/2000/svg" width="374" height="374" viewBox="0 0 374 374">
  <g id="Group_1" data-name="Group 1" transform="translate(-773 -353)">
    <rect id="Rectangle_1" data-name="Rectangle 1" width="374" height="374" rx="99" transform="translate(773 353)"/>
    <path id="Path_2" data-name="Path 2" d="M127.309-159.273h14.543V-53.817a55.656,55.656,0,0,1-7.621,29.047A54.131,54.131,0,0,1,113.039-4.627Q99.468,2.722,81.5,2.722q-17.887,0-31.5-7.388A54.429,54.429,0,0,1,28.775-24.809a55.451,55.451,0,0,1-7.621-29.008V-159.273H35.7V-54.828a44.65,44.65,0,0,0,5.677,22.592A40.568,40.568,0,0,0,57.355-16.643q10.3,5.677,24.148,5.677t24.186-5.677a40.232,40.232,0,0,0,15.982-15.593,44.893,44.893,0,0,0,5.638-22.592Zm71.393,0V0H184.159V-159.273Z" transform="translate(851 620)" fill="#fff"/>
  </g>
</svg>
