<svg xmlns="http://www.w3.org/2000/svg" width="24" height="24" viewBox="0 0 24 24">
  <g id="vuesax_bold_element-equal" data-name="vuesax/bold/element-equal" transform="translate(-108 -316)">
    <g id="element-equal">
      <rect id="Rectangle_75" data-name="Rectangle 75" width="24" height="24" rx="7" transform="translate(108 316)" fill="#b0d0f7"/>
      <g id="Group_67" data-name="Group 67" transform="translate(5 5)">
        <path id="Vector" d="M3.937.875H.437A.441.441,0,0,1,0,.437.441.441,0,0,1,.437,0h3.5a.441.441,0,0,1,.437.437A.441.441,0,0,1,3.937.875Z" transform="translate(116.312 324.604)" fill="#0070f3"/>
        <path id="Vector-2" data-name="Vector" d="M3.937.875H.437A.441.441,0,0,1,0,.437.441.441,0,0,1,.437,0h3.5a.441.441,0,0,1,.437.437A.441.441,0,0,1,3.937.875Z" transform="translate(116.312 326.937)" fill="#0070f3"/>
        <path id="Vector-3" data-name="Vector" d="M4.958,3.8V1.155C4.958.332,4.585,0,3.657,0H1.3C.373,0,0,.332,0,1.155V3.8c0,.828.373,1.155,1.3,1.155H3.657C4.585,4.958,4.958,4.626,4.958,3.8Z" transform="translate(115.874 317.167)" fill="#0070f3"/>
        <path id="Vector-4" data-name="Vector" d="M4.958,3.8V1.155C4.958.332,4.585,0,3.657,0H1.3C.373,0,0,.332,0,1.155V3.8c0,.828.373,1.155,1.3,1.155H3.657C4.585,4.958,4.958,4.626,4.958,3.8Z" transform="translate(109.167 317.167)" fill="#0070f3"/>
        <path id="Vector-5" data-name="Vector" d="M4.958,3.657V1.3c0-.927-.373-1.3-1.3-1.3H1.3C.373,0,0,.373,0,1.3V3.657c0,.927.373,1.3,1.3,1.3H3.657C4.585,4.958,4.958,4.585,4.958,3.657Z" transform="translate(109.167 323.874)" fill="#0070f3"/>
        <path id="Vector-6" data-name="Vector" d="M0,0H14V14H0Z" transform="translate(121.999 329.999) rotate(180)" fill="none" opacity="0"/>
      </g>
    </g>
  </g>
</svg>
