<svg xmlns="http://www.w3.org/2000/svg" xmlns:xlink="http://www.w3.org/1999/xlink" width="24" height="24" viewBox="0 0 24 24">
  <defs>
    <linearGradient id="linear-gradient" x1="0.5" x2="0.5" y2="1" gradientUnits="objectBoundingBox">
      <stop offset="0" stop-color="#fff"/>
      <stop offset="1" stop-color="gray"/>
    </linearGradient>
  </defs>
  <g id="vuesax_bold_element-equal" data-name="vuesax/bold/element-equal" transform="translate(-108 -316)">
    <g id="element-equal">
      <path id="Vector" d="M6.75,1.5h-6A.755.755,0,0,1,0,.75.755.755,0,0,1,.75,0h6A.755.755,0,0,1,7.5.75.755.755,0,0,1,6.75,1.5Z" transform="translate(122.25 330.75)" fill="#f6f6f6"/>
      <path id="Vector-2" data-name="Vector" d="M6.75,1.5h-6A.755.755,0,0,1,0,.75.755.755,0,0,1,.75,0h6A.755.755,0,0,1,7.5.75.755.755,0,0,1,6.75,1.5Z" transform="translate(122.25 334.75)" fill="#f6f6f6"/>
      <path id="Vector-3" data-name="Vector" d="M8.5,6.52V1.98C8.5.57,7.86,0,6.27,0H2.23C.64,0,0,.57,0,1.98V6.51C0,7.93.64,8.49,2.23,8.49H6.27C7.86,8.5,8.5,7.93,8.5,6.52Z" transform="translate(121.5 318)" fill="url(#linear-gradient)"/>
      <path id="Vector-4" data-name="Vector" d="M8.5,6.52V1.98C8.5.57,7.86,0,6.27,0H2.23C.64,0,0,.57,0,1.98V6.51C0,7.93.64,8.49,2.23,8.49H6.27C7.86,8.5,8.5,7.93,8.5,6.52Z" transform="translate(110 318)" fill="url(#linear-gradient)"/>
      <path id="Vector-5" data-name="Vector" d="M8.5,6.27V2.23C8.5.64,7.86,0,6.27,0H2.23C.64,0,0,.64,0,2.23V6.27C0,7.86.64,8.5,2.23,8.5H6.27C7.86,8.5,8.5,7.86,8.5,6.27Z" transform="translate(110 329.5)" fill="url(#linear-gradient)"/>
      <path id="Vector-6" data-name="Vector" d="M0,0H24V24H0Z" transform="translate(132 340) rotate(180)" fill="none" opacity="0"/>
    </g>
  </g>
</svg>
