<svg width="32" height="30" viewBox="0 0 32 30" fill="none" xmlns="http://www.w3.org/2000/svg">
<path d="M31.8069 17.5128C31.6115 17.1831 31.0606 16.6701 29.6941 16.9144C28.9371 17.0526 28.1669 17.1059 27.3981 17.0731C26.0259 17.0109 24.6802 16.674 23.4405 16.0825C22.2009 15.4909 21.0925 14.6567 20.181 13.6291C18.8984 12.2241 18.0499 10.4779 17.7381 8.60122C17.4263 6.72457 17.6644 4.79777 18.4237 3.05348C18.961 1.81999 18.5824 1.17271 18.3138 0.904025C18.0335 0.62313 17.3734 0.230284 16.0788 0.769684C13.652 1.78266 11.603 3.52953 10.2189 5.7655C8.83472 8.00146 8.18484 10.6145 8.3603 13.2383C8.57776 15.7039 9.50578 18.0534 11.0319 20.0021C12.558 21.9508 14.6166 23.4149 16.9581 24.217C18.0947 24.6135 19.2836 24.8399 20.4863 24.8887C20.6817 24.9009 20.8771 24.9131 21.0725 24.9131C23.0849 24.9164 25.0698 24.4461 26.8667 23.5402C28.6636 22.6342 30.2221 21.3181 31.4161 19.6982C32.2357 18.5631 32.0159 17.8426 31.8069 17.5128Z" fill="url(#paint0_linear)"/>
<g filter="url(#filter0_d)">
<path d="M18.2838 15.0878C18.2838 16.6982 17.8063 18.2723 16.9116 19.6113C16.0169 20.9502 14.7453 21.9938 13.2575 22.61C11.7698 23.2262 10.1327 23.3874 8.55328 23.0732C6.97389 22.759 5.52314 21.9835 4.3845 20.8448C3.24586 19.7061 2.47047 18.2553 2.15638 16.6759C1.84229 15.0965 2.0036 13.4594 2.61993 11.9717C3.23626 10.4839 4.27992 9.21239 5.61892 8.31781C6.95792 7.42324 8.53213 6.94582 10.1425 6.94594C12.3017 6.94609 14.3725 7.80396 15.8993 9.33085C17.4261 10.8577 18.2838 12.9286 18.2838 15.0878Z" fill="url(#paint1_linear)"/>
</g>
<defs>
<filter id="filter0_d" x="0" y="4.94594" width="24.2838" height="24.2838" filterUnits="userSpaceOnUse" color-interpolation-filters="sRGB">
<feFlood flood-opacity="0" result="BackgroundImageFix"/>
<feColorMatrix in="SourceAlpha" type="matrix" values="0 0 0 0 0 0 0 0 0 0 0 0 0 0 0 0 0 0 127 0" result="hardAlpha"/>
<feOffset dx="2" dy="2"/>
<feGaussianBlur stdDeviation="2"/>
<feComposite in2="hardAlpha" operator="out"/>
<feColorMatrix type="matrix" values="0 0 0 0 0 0 0 0 0 0 0 0 0 0 0 0 0 0 0.15 0"/>
<feBlend mode="normal" in2="BackgroundImageFix" result="effect1_dropShadow"/>
<feBlend mode="normal" in="SourceGraphic" in2="effect1_dropShadow" result="shape"/>
</filter>
<linearGradient id="paint0_linear" x1="20.3192" y1="-7.30237" x2="20.3192" y2="37.1388" gradientUnits="userSpaceOnUse">
<stop/>
<stop offset="1" stop-color="white"/>
</linearGradient>
<linearGradient id="paint1_linear" x1="10.1419" y1="6.94594" x2="10.1419" y2="42.906" gradientUnits="userSpaceOnUse">
<stop stop-color="white"/>
<stop offset="1" stop-color="#AAAAAA"/>
</linearGradient>
</defs>
</svg>
