<svg xmlns="http://www.w3.org/2000/svg" width="24" height="24" viewBox="0 0 24 24">
  <g id="vuesax_bold_note-text" data-name="vuesax/bold/note-text" transform="translate(-797 -316)">
    <g id="note-text" transform="translate(49)">
      <path id="Vector" d="M0,0H24V24H0Z" transform="translate(748 316)" fill="none" opacity="0"/>
      <rect id="Rectangle_73" data-name="Rectangle 73" width="24" height="24" rx="7" transform="translate(748 316)" fill="#b0d0f7"/>
      <g id="Group" transform="translate(3.012 3.917)">
        <path id="Vector-2" data-name="Vector" d="M1.028,1.542V.514A.518.518,0,0,0,.514,0,.518.518,0,0,0,0,.514V1.583a4.108,4.108,0,0,1,.514-.041Z" transform="translate(753.826 317.25)" fill="#0070f3"/>
        <path id="Vector-3" data-name="Vector" d="M1.028,1.583V.514A.518.518,0,0,0,.514,0,.518.518,0,0,0,0,.514V1.542H.514A4.108,4.108,0,0,1,1.028,1.583Z" transform="translate(759.146 317.25)" fill="#0070f3"/>
        <path id="Vector-4" data-name="Vector" d="M9.167.04V1a.5.5,0,0,1-1,0V0H3.833V1a.5.5,0,0,1-1,0V.04C.867.219,0,1.482,0,3.322V8.969a2.985,2.985,0,0,0,3.333,3.322H8.667A2.985,2.985,0,0,0,12,8.969V3.322C12,1.482,11.133.219,9.167.04ZM6,8.8H3.333a.5.5,0,1,1,0-1H6a.5.5,0,1,1,0,1ZM8.667,5.481H3.333a.5.5,0,1,1,0-1H8.667a.5.5,0,1,1,0,1Z" transform="translate(751 318.792)" fill="#0070f3"/>
      </g>
    </g>
  </g>
</svg>
