<?xml version="1.0" standalone="no"?>
<!DOCTYPE svg PUBLIC "-//W3C//DTD SVG 20010904//EN"
 "http://www.w3.org/TR/2001/REC-SVG-20010904/DTD/svg10.dtd">
<svg version="1.0" xmlns="http://www.w3.org/2000/svg"
 width="700.000000pt" height="700.000000pt" viewBox="0 0 700.000000 700.000000"
 preserveAspectRatio="xMidYMid meet">
<metadata>
Created by potrace 1.14, written by Peter Selinger 2001-2017
</metadata>
<g transform="translate(0.000000,700.000000) scale(0.100000,-0.100000)"
fill="#000000" stroke="none">
<path d="M1695 6994 c-225 -28 -371 -63 -535 -129 -240 -96 -423 -218 -615
-410 -291 -290 -464 -634 -527 -1045 -19 -125 -19 -3696 0 -3820 60 -388 226
-732 487 -1008 245 -260 554 -440 900 -526 213 -53 139 -51 2100 -51 1730 0
1836 1 1939 18 832 140 1454 800 1545 1639 15 135 15 3541 0 3676 -49 448
-243 843 -564 1150 -269 257 -590 418 -975 489 -88 16 -226 18 -1910 19 -998
1 -1828 0 -1845 -2z m435 -3038 c0 -845 2 -1037 14 -1099 64 -333 313 -573
659 -633 123 -22 329 -14 442 15 155 41 278 114 387 229 79 84 129 171 172
295 l31 92 3 1063 3 1062 135 0 135 0 -3 -1087 -3 -1088 -28 -90 c-59 -192
-142 -328 -276 -458 -185 -178 -400 -271 -691 -298 -377 -36 -736 85 -967 324
-120 124 -195 254 -250 432 l-28 90 -3 1088 -3 1087 136 0 135 0 0 -1024z
m3050 -466 l0 -1490 -135 0 -135 0 0 1490 0 1490 135 0 135 0 0 -1490z"/>
</g>
</svg>
