<svg xmlns="http://www.w3.org/2000/svg" width="42" height="42" viewBox="0 0 42 42">
  <g id="vuesax_bold_color-swatch" data-name="vuesax/bold/color-swatch" transform="translate(-300 -280)">
    <g id="color-swatch" transform="translate(300 280)">
      <rect id="Rectangle_74" data-name="Rectangle 74" width="42" height="42" rx="11" fill="#b0d0f7"/>
      <path id="Vector" d="M0,0H41.5V41.5H0Z" fill="none" opacity="0"/>
      <g id="Group_66" data-name="Group 66" transform="translate(11 11)">
        <path id="Vector-2" data-name="Vector" d="M10.666,2.506V5.514A2.507,2.507,0,0,1,8.16,8.02H1a1,1,0,0,1-.712-1.7L6.175.3A1.019,1.019,0,0,1,6.887,0H8.16A2.507,2.507,0,0,1,10.666,2.506Z" transform="translate(9.384 12.03)" fill="#0070f3"/>
        <path id="Vector-3" data-name="Vector" d="M6.9,6.411,4.18,9.128,1.714,11.584A1,1,0,0,1,0,10.882V2.371a1.035,1.035,0,0,1,.291-.712L1.213.737a2.505,2.505,0,0,1,3.549,0L6.887,2.862A2.5,2.5,0,0,1,6.9,6.411Z" transform="translate(9.514 2.902)" fill="#0070f3"/>
        <path id="Vector-4" data-name="Vector" d="M5.514,0H2.506A2.368,2.368,0,0,0,0,2.506V16.04a4.266,4.266,0,0,0,.08.8c.03.13.06.261.1.391.05.15.1.3.16.441a.031.031,0,0,1,.01.02c.01,0,.01,0,0,.01a5.055,5.055,0,0,0,.491.8c.11.13.221.251.331.371a2.751,2.751,0,0,0,.361.321l.01.01a5.055,5.055,0,0,0,.8.491c.01-.01.01-.01.01,0a3.62,3.62,0,0,0,.461.17c.13.04.261.07.391.1a4.266,4.266,0,0,0,.8.08,3.9,3.9,0,0,0,1.223-.19c.11-.04.221-.08.331-.13a3.508,3.508,0,0,0,.992-.6,3.156,3.156,0,0,0,.281-.251l.04-.04a4.017,4.017,0,0,0,1.143-2.8V2.506A2.368,2.368,0,0,0,5.514,0ZM4.01,17.544a1.5,1.5,0,1,1,1.5-1.5A1.5,1.5,0,0,1,4.01,17.544Z" fill="#0070f3"/>
      </g>
    </g>
  </g>
</svg>
