<svg width="1266" height="1211" viewBox="0 0 1266 1211" fill="none" xmlns="http://www.w3.org/2000/svg">
<g opacity="0.3" filter="url(#filter0_f)">
<path opacity="0.5" d="M800.99 565.412C807.9 589.241 834.75 600.713 838.91 626.322C839.5 633.212 847.03 646.162 872.42 642.845C896.89 657.07 972.65 629.431 991.15 653.205C1004.77 670.707 1019.76 692.536 1014.47 724.006C1010.39 748.27 996.81 772.188 983.05 792.839C963.11 822.752 939.58 849.957 914.16 871.496C831.32 941.712 736.47 959.99 654.39 960.24C554.38 960.55 467.74 921.927 394.81 860.159C364.73 834.686 337.79 805.2 317.08 767.666C298.02 733.109 282.51 694.472 270.54 653.568C255.29 601.497 246.7 543.115 253.09 479.95C257.94 431.908 278.55 386.095 307.09 344.272C346.09 287.095 398.52 254.63 449.29 250.971C480.61 248.715 515.38 262.282 516.83 304.632C517.93 336.939 503.01 373.248 493.33 406.417C486.87 428.583 478.06 459.976 492.83 471.537C517.81 491.094 552.6 496.711 584.1 500.672C624.34 505.732 667.42 494.843 709.3 492.18C733.42 490.646 752.96 502.475 770.12 516.942C783.91 528.575 795.06 544.983 800.99 565.412Z" fill="#0070F3"/>
</g>
<defs>
<filter id="filter0_f" x="0.957031" y="0.734375" width="1264.6" height="1209.51" filterUnits="userSpaceOnUse" color-interpolation-filters="sRGB">
<feFlood flood-opacity="0" result="BackgroundImageFix"/>
<feBlend mode="normal" in="SourceGraphic" in2="BackgroundImageFix" result="shape"/>
<feGaussianBlur stdDeviation="125" result="effect1_foregroundBlur"/>
</filter>
</defs>
</svg>
