<svg xmlns="http://www.w3.org/2000/svg" width="24" height="24" viewBox="0 0 24 24">
  <g id="vuesax_bold_color-swatch" data-name="vuesax/bold/color-swatch" transform="translate(-300 -280)">
    <g id="color-swatch">
      <rect id="Rectangle_74" data-name="Rectangle 74" width="24" height="24" rx="7" transform="translate(300 280)" fill="#b0d0f7"/>
      <path id="Vector" d="M0,0H24V24H0Z" transform="translate(300 280)" fill="none" opacity="0"/>
      <g id="Group_66" data-name="Group 66" transform="translate(2.999 2.998)">
        <path id="Vector-2" data-name="Vector" d="M7.449,1.75v2.1A1.751,1.751,0,0,1,5.7,5.6H.7a.7.7,0,0,1-.5-1.19L4.312.21A.712.712,0,0,1,4.81,0H5.7A1.751,1.751,0,0,1,7.449,1.75Z" transform="translate(308.553 290.401)" fill="#0070f3"/>
        <path id="Vector-3" data-name="Vector" d="M4.817,4.477l-1.9,1.9L1.2,8.09A.7.7,0,0,1,0,7.6V1.656a.723.723,0,0,1,.2-.5L.847.515a1.749,1.749,0,0,1,2.478,0L4.81,2A1.743,1.743,0,0,1,4.817,4.477Z" transform="translate(308.644 284.027)" fill="#0070f3"/>
        <path id="Vector-4" data-name="Vector" d="M3.851,0H1.75A1.654,1.654,0,0,0,0,1.75V11.2a2.979,2.979,0,0,0,.056.56c.021.091.042.182.07.273s.07.21.112.308a.022.022,0,0,1,.007.014c.007,0,.007,0,0,.007a3.53,3.53,0,0,0,.343.56c.077.091.154.175.231.259a1.921,1.921,0,0,0,.252.224l.007.007a3.53,3.53,0,0,0,.56.343c.007-.007.007-.007.007,0a2.528,2.528,0,0,0,.322.119c.091.028.182.049.273.07A2.979,2.979,0,0,0,2.8,14a2.722,2.722,0,0,0,.854-.133c.077-.028.154-.056.231-.091a2.45,2.45,0,0,0,.693-.42,2.2,2.2,0,0,0,.2-.175l.028-.028A2.806,2.806,0,0,0,5.6,11.2V1.75A1.654,1.654,0,0,0,3.851,0ZM2.8,12.252a1.05,1.05,0,1,1,1.05-1.05A1.049,1.049,0,0,1,2.8,12.252Z" transform="translate(302 282)" fill="#0070f3"/>
      </g>
    </g>
  </g>
</svg>
