<svg width="1572" height="1599" viewBox="0 0 1572 1599" fill="none" xmlns="http://www.w3.org/2000/svg">
<g opacity="0.5" filter="url(#filter0_f)">
<path opacity="0.5" d="M840.056 753.268C836.152 778.942 858.33 804.513 850.793 830.269C848.223 836.901 849.958 852.971 877.46 864.197C895.94 890.947 986.16 908.222 994.13 940.35C1000.01 964 1005.29 992.4 985.38 1018.2C970.04 1038.1 945.13 1052.35 921.54 1063.5C887.38 1079.67 850.771 1091.33 814.858 1096.76C697.771 1114.44 592.338 1077.89 508.265 1032.02C405.824 976.13 334.98 892.154 288.832 794.709C269.799 754.523 255.817 712.425 251.923 666.471C248.338 624.16 250.272 580.118 256.858 535.984C265.243 479.8 283.346 421.583 318.97 367.404C346.064 326.197 388.243 295.872 436.691 273.648C502.926 243.267 571.506 243.019 625.124 268.187C658.196 283.71 687.518 315.648 669.492 355.191C655.741 385.355 623.751 410.177 598.581 435.08C581.76 451.721 558.289 475.481 568.072 494.349C584.619 526.264 617.622 550.942 648.02 572.256C686.853 599.484 735.927 613.715 779.99 634.8C805.368 646.943 819.91 668.735 830.799 691.603C839.555 709.989 843.403 731.258 840.056 753.268Z" fill="#F587AE" fill-opacity="0.8"/>
</g>
<g opacity="0.3" filter="url(#filter1_f)">
<path opacity="0.5" d="M1044.83 876.734C1063.53 893.034 1092.32 888.153 1109.67 907.439C1113.9 912.914 1127.24 919.73 1146.8 903.202C1175.07 901.924 1223.83 837.688 1252.25 847.671C1273.17 855.02 1297.59 865.266 1310.17 894.594C1319.87 917.207 1321.39 944.67 1320.99 969.48C1320.41 1005.43 1315.34 1041.04 1305.62 1072.9C1273.95 1176.78 1204.07 1243.47 1135.18 1288.09C1051.24 1342.47 957.48 1356.87 862.73 1344.39C823.65 1339.24 785.039 1329.02 747.314 1308.66C712.587 1289.91 678.637 1265.81 646.438 1237.89C605.438 1202.35 566.624 1157.9 537.82 1101.33C515.904 1058.3 508.447 1008.62 509.818 958.01C511.678 888.821 538.203 833.149 578.919 802.601C604.038 783.757 640.619 776.353 664.754 811.183C683.16 837.757 690.259 876.365 700.066 909.496C706.627 931.633 716.204 962.8 734.881 964.53C766.47 967.46 798.767 953.36 827.4 939.65C863.98 922.129 894.32 889.661 928.09 864.761C947.55 850.42 970.38 849.795 992.64 852.676C1010.53 854.997 1028.79 862.762 1044.83 876.734Z" fill="#63A5F2" fill-opacity="0.6"/>
</g>
<defs>
<filter id="filter0_f" x="0.145508" y="0.0317383" width="1249.33" height="1351.27" filterUnits="userSpaceOnUse" color-interpolation-filters="sRGB">
<feFlood flood-opacity="0" result="BackgroundImageFix"/>
<feBlend mode="normal" in="SourceGraphic" in2="BackgroundImageFix" result="shape"/>
<feGaussianBlur stdDeviation="125" result="effect1_foregroundBlur"/>
</filter>
<filter id="filter1_f" x="259.661" y="536.762" width="1311.39" height="1061.82" filterUnits="userSpaceOnUse" color-interpolation-filters="sRGB">
<feFlood flood-opacity="0" result="BackgroundImageFix"/>
<feBlend mode="normal" in="SourceGraphic" in2="BackgroundImageFix" result="shape"/>
<feGaussianBlur stdDeviation="125" result="effect1_foregroundBlur"/>
</filter>
</defs>
</svg>
