<svg xmlns="http://www.w3.org/2000/svg" width="42" height="42" viewBox="0 0 42 42">
  <g id="vuesax_bold_toggle-off-circle" data-name="vuesax/bold/toggle-off-circle" transform="translate(-108 -256)">
    <rect id="Rectangle_76" data-name="Rectangle 76" width="42" height="42" rx="11" transform="translate(108 256)" fill="#b0d0f7"/>
    <path id="Vector" d="M19.473,14.082c-.162-.273-.618-.7-1.752-.5a8.587,8.587,0,0,1-1.9.131A8.525,8.525,0,0,1,9.83,10.867,8.143,8.143,0,0,1,8.371,2.112C8.817,1.091,8.5.555,8.28.333S7.5-.223,6.426.222a10.428,10.428,0,0,0-6.4,10.322,10.594,10.594,0,0,0,7.131,9.088,10.149,10.149,0,0,0,2.927.556c.162.01.324.02.486.02a10.644,10.644,0,0,0,8.58-4.317C19.828,14.951,19.646,14.354,19.473,14.082Z" transform="translate(119.181 266.892)" fill="#0070f3"/>
  </g>
</svg>
