<svg xmlns="http://www.w3.org/2000/svg" xmlns:xlink="http://www.w3.org/1999/xlink" width="45" height="47" viewBox="0 0 45 47">
  <defs>
    <linearGradient id="linear-gradient" x1="0.5" x2="0.5" y2="1.95" gradientUnits="objectBoundingBox">
      <stop offset="0" stop-color="#fff"/>
      <stop offset="1" stop-color="gray"/>
    </linearGradient>
    <linearGradient id="linear-gradient-2" x1="0.5" x2="0.5" y2="1.872" gradientUnits="objectBoundingBox">
      <stop offset="0" stop-color="#a2a2a2"/>
      <stop offset="1" stop-color="#111"/>
    </linearGradient>
  </defs>
  <g id="Group_28" data-name="Group 28" transform="translate(-520 -684)">
    <path id="Exclusion_1" data-name="Exclusion 1" d="M-3957.5,45a22.36,22.36,0,0,1-8.758-1.768,22.427,22.427,0,0,1-7.152-4.822,22.431,22.431,0,0,1-4.822-7.152A22.363,22.363,0,0,1-3980,22.5a22.363,22.363,0,0,1,1.768-8.758,22.43,22.43,0,0,1,4.822-7.152,22.428,22.428,0,0,1,7.152-4.822A22.36,22.36,0,0,1-3957.5,0a22.361,22.361,0,0,1,8.758,1.768,22.422,22.422,0,0,1,7.152,4.822,22.426,22.426,0,0,1,4.822,7.152A22.363,22.363,0,0,1-3935,22.5a22.363,22.363,0,0,1-1.768,8.758,22.426,22.426,0,0,1-4.822,7.152,22.422,22.422,0,0,1-7.152,4.822A22.361,22.361,0,0,1-3957.5,45Zm0-28.972a6.48,6.48,0,0,0-6.473,6.473,6.48,6.48,0,0,0,6.473,6.473,6.43,6.43,0,0,0,4.577-1.9,6.431,6.431,0,0,0,1.9-4.577,6.431,6.431,0,0,0-1.9-4.577A6.43,6.43,0,0,0-3957.5,16.027Z" transform="translate(4500 684)" fill="url(#linear-gradient)"/>
    <path id="Polygon_1" data-name="Polygon 1" d="M11.631,1.53a1,1,0,0,1,1.739,0L24.151,20.506A1,1,0,0,1,23.282,22H1.718a1,1,0,0,1-.869-1.494Z" transform="translate(530 709)" fill="url(#linear-gradient-2)"/>
  </g>
</svg>
