<svg xmlns="http://www.w3.org/2000/svg" width="42" height="42" viewBox="0 0 42 42">
  <g id="vuesax_bold_toggle-off-circle" data-name="vuesax/bold/toggle-off-circle" transform="translate(-114 -262)">
    <rect id="Rectangle_76" data-name="Rectangle 76" width="42" height="42" rx="11" transform="translate(114 262)" fill="#b0d0f7"/>
    <path id="Path_59" data-name="Path 59" d="M10.21,22.5q0-.636-.009-1.221-.009-.878-.009-1.532l-.4.069a5.07,5.07,0,0,1-.957.06,7.3,7.3,0,0,1-1.2-.121,2.678,2.678,0,0,1-1.155-.516,2.184,2.184,0,0,1-.758-1.059l-.172-.4a4.3,4.3,0,0,0-.543-.878,2.079,2.079,0,0,0-.75-.654l-.121-.086a1.267,1.267,0,0,1-.224-.207.943.943,0,0,1-.155-.241q-.052-.121.086-.2a1.119,1.119,0,0,1,.5-.077l.345.051a2.518,2.518,0,0,1,.853.413,2.78,2.78,0,0,1,.836.895,3.036,3.036,0,0,0,.957,1.076,2.031,2.031,0,0,0,1.129.37,4.911,4.911,0,0,0,.982-.086,3.429,3.429,0,0,0,.776-.258,2.788,2.788,0,0,1,.845-1.773,11.813,11.813,0,0,1-1.767-.31,7.037,7.037,0,0,1-1.62-.672A4.638,4.638,0,0,1,6.3,14a5.54,5.54,0,0,1-.9-1.808A8.586,8.586,0,0,1,5.04,9.606,5.018,5.018,0,0,1,6.4,6.06a4.623,4.623,0,0,1,.121-3.512A2.418,2.418,0,0,1,8,2.78a10.372,10.372,0,0,1,1.439.663q.457.275.733.465a12.463,12.463,0,0,1,6.619,0L17.45,3.5a9.283,9.283,0,0,1,1.585-.758,2.262,2.262,0,0,1,1.4-.189A4.578,4.578,0,0,1,20.57,6.06a5.019,5.019,0,0,1,1.362,3.547,8.682,8.682,0,0,1-.353,2.591A5.325,5.325,0,0,1,20.665,14a4.816,4.816,0,0,1-1.4,1.145,7.054,7.054,0,0,1-1.62.672,11.818,11.818,0,0,1-1.767.31,3.064,3.064,0,0,1,.9,2.444V22.5Z" transform="translate(122.159 270.5)" fill="#0070f3" fill-rule="evenodd"/>
  </g>
</svg>
