<svg width="30" height="30" viewBox="0 0 30 30" fill="none" xmlns="http://www.w3.org/2000/svg">
<path fill-rule="evenodd" clip-rule="evenodd" d="M11.7448 27.25C11.7423 26.7257 11.7387 26.2221 11.734 25.7391C11.7267 25.0146 11.7233 24.3826 11.7233 23.8433L11.2326 23.9281C10.9198 23.9853 10.5252 24.0095 10.0488 24.0027C9.5726 23.996 9.07824 23.9462 8.56641 23.8535C8.05435 23.7617 7.57808 23.5486 7.13722 23.2148C6.69658 22.8811 6.38377 22.4442 6.19887 21.9048L5.98557 21.4146C5.8434 21.0882 5.61957 20.7256 5.31378 20.3282C5.008 19.9304 4.69877 19.6607 4.38596 19.5187L4.23662 19.412C4.13711 19.341 4.04477 19.2554 3.95937 19.1561C3.87405 19.0568 3.81018 18.9574 3.76752 18.8578C3.72479 18.7582 3.7602 18.6765 3.87413 18.6124C3.98806 18.5483 4.19396 18.5172 4.49272 18.5172L4.91917 18.5808C5.20359 18.6378 5.55539 18.8078 5.97504 19.0921C6.39445 19.3761 6.73924 19.7453 7.00946 20.1996C7.33669 20.782 7.73093 21.2259 8.19331 21.5313C8.65531 21.8367 9.12113 21.9892 9.5903 21.9892C10.0595 21.9892 10.4647 21.9536 10.8061 21.883C11.1472 21.8119 11.4672 21.7052 11.7659 21.5632C11.8939 20.6112 12.2423 19.8799 12.811 19.3687C12.0005 19.2836 11.2719 19.1555 10.6247 18.9851C9.97782 18.8146 9.3094 18.5377 8.61983 18.1539C7.92988 17.7706 7.35753 17.2946 6.90263 16.7267C6.44765 16.1586 6.07425 15.4127 5.78296 14.4897C5.49152 13.5664 5.34576 12.5013 5.34576 11.2941C5.34576 9.57521 5.90757 8.11252 7.03098 6.90518C6.50473 5.61293 6.55441 4.16427 7.18017 2.55936C7.59257 2.43139 8.20414 2.52743 9.01459 2.84687C9.82519 3.16647 10.4187 3.44024 10.7957 3.66723C11.1727 3.89415 11.4747 4.08645 11.7023 4.2424C13.025 3.87326 14.39 3.68865 15.7977 3.68865C17.2054 3.68865 18.5707 3.87326 19.8935 4.2424L20.704 3.73133C21.2583 3.39032 21.9128 3.07782 22.666 2.79374C23.4197 2.50982 23.996 2.43162 24.3944 2.55959C25.034 4.16457 25.091 5.61315 24.5646 6.90541C25.688 8.11275 26.25 9.57581 26.25 11.2943C26.25 12.5015 26.1037 13.5699 25.8127 14.5004C25.5214 15.4309 25.1447 16.1761 24.6827 16.7374C24.2202 17.2986 23.6442 17.7709 22.9546 18.1541C22.2649 18.5376 21.5963 18.8145 20.9494 18.9851C20.3023 19.1556 19.5737 19.2838 18.7632 19.3691C19.5024 20.0079 19.872 21.0164 19.872 22.394V27.25H11.7448Z" fill="url(#paint0_linear)"/>
<defs>
<linearGradient id="paint0_linear" x1="15" y1="2.5" x2="15" y2="27.25" gradientUnits="userSpaceOnUse">
<stop stop-color="#4F4F4F"/>
<stop offset="1" stop-color="#AAAAAA"/>
</linearGradient>
</defs>
</svg>
