<svg width="35" height="35" viewBox="0 0 35 35" fill="none" xmlns="http://www.w3.org/2000/svg">
<path d="M25.9742 9.57085L16.3331 6.43824C13.0051 5.35693 9.43074 7.17817 8.34943 10.5061L5.19665 20.2094C4.11534 23.5373 5.93658 27.1117 9.26451 28.193L18.9057 31.3256C22.2336 32.4069 25.808 30.5857 26.8893 27.2577L30.0421 17.5545C31.1234 14.2266 29.3022 10.6522 25.9742 9.57085Z" fill="url(#paint0_linear)"/>
<g filter="url(#filter0_d)">
<path d="M21.8487 4.57697L11.8362 2.99114C8.38007 2.44375 5.13459 4.80173 4.58719 8.25784L2.99115 18.3348C2.44376 21.7909 4.80174 25.0364 8.25785 25.5838L18.2704 27.1696C21.7265 27.717 24.972 25.3591 25.5194 21.903L27.1154 11.826C27.6628 8.36985 25.3048 5.12437 21.8487 4.57697Z" fill="url(#paint1_linear)"/>
</g>
<defs>
<filter id="filter0_d" x="0" y="0" width="34.1066" height="34.1608" filterUnits="userSpaceOnUse" color-interpolation-filters="sRGB">
<feFlood flood-opacity="0" result="BackgroundImageFix"/>
<feColorMatrix in="SourceAlpha" type="matrix" values="0 0 0 0 0 0 0 0 0 0 0 0 0 0 0 0 0 0 127 0" result="hardAlpha"/>
<feOffset dx="2" dy="2"/>
<feGaussianBlur stdDeviation="2"/>
<feComposite in2="hardAlpha" operator="out"/>
<feColorMatrix type="matrix" values="0 0 0 0 0 0 0 0 0 0 0 0 0 0 0 0 0 0 0.15 0"/>
<feBlend mode="normal" in2="BackgroundImageFix" result="effect1_dropShadow"/>
<feBlend mode="normal" in="SourceGraphic" in2="effect1_dropShadow" result="shape"/>
</filter>
<linearGradient id="paint0_linear" x1="15.3053" y1="2" x2="24.809" y2="36.8471" gradientUnits="userSpaceOnUse">
<stop/>
<stop offset="1" stop-color="white"/>
</linearGradient>
<linearGradient id="paint1_linear" x1="16.8424" y1="3.78406" x2="11.5038" y2="42.8662" gradientUnits="userSpaceOnUse">
<stop stop-color="white"/>
<stop offset="1" stop-color="#AAAAAA"/>
</linearGradient>
</defs>
</svg>
