<svg xmlns="http://www.w3.org/2000/svg" xmlns:xlink="http://www.w3.org/1999/xlink" width="24" height="24" viewBox="0 0 24 24">
  <defs>
    <linearGradient id="linear-gradient" x1="0.5" x2="0.5" y2="1" gradientUnits="objectBoundingBox">
      <stop offset="0" stop-color="#fff"/>
      <stop offset="1" stop-color="gray"/>
    </linearGradient>
  </defs>
  <g id="vuesax_bold_color-swatch" data-name="vuesax/bold/color-swatch" transform="translate(-300 -316)">
    <g id="color-swatch">
      <path id="Vector" d="M0,0H24V24H0Z" transform="translate(300 316)" fill="none" opacity="0"/>
      <path id="Vector-2" data-name="Vector" d="M10.64,2.5v3A2.5,2.5,0,0,1,8.14,8H1A1,1,0,0,1,.29,6.3L6.16.3A1.017,1.017,0,0,1,6.87,0H8.14A2.5,2.5,0,0,1,10.64,2.5Z" transform="translate(311.36 330)" fill="url(#linear-gradient)"/>
      <path id="Vector-3" data-name="Vector" d="M6.88,6.395,4.17,9.1l-2.46,2.45a1,1,0,0,1-1.71-.7V2.365a1.033,1.033,0,0,1,.29-.71l.92-.92a2.5,2.5,0,0,1,3.54,0l2.12,2.12A2.49,2.49,0,0,1,6.88,6.395Z" transform="translate(311.49 320.895)" fill="url(#linear-gradient)"/>
      <path id="Vector-4" data-name="Vector" d="M5.5,0h-3A2.362,2.362,0,0,0,0,2.5V16a4.255,4.255,0,0,0,.08.8c.03.13.06.26.1.39.05.15.1.3.16.44a.031.031,0,0,1,.01.02c.01,0,.01,0,0,.01a5.042,5.042,0,0,0,.49.8c.11.13.22.25.33.37a2.744,2.744,0,0,0,.36.32l.01.01a5.042,5.042,0,0,0,.8.49c.01-.01.01-.01.01,0a3.611,3.611,0,0,0,.46.17c.13.04.26.07.39.1A4.255,4.255,0,0,0,4,20a3.888,3.888,0,0,0,1.22-.19c.11-.04.22-.08.33-.13a3.5,3.5,0,0,0,.99-.6,3.149,3.149,0,0,0,.28-.25l.04-.04A4.007,4.007,0,0,0,8,16V2.5A2.362,2.362,0,0,0,5.5,0ZM4,17.5A1.5,1.5,0,1,1,5.5,16,1.5,1.5,0,0,1,4,17.5Z" transform="translate(302 318)" fill="url(#linear-gradient)"/>
    </g>
  </g>
</svg>
